<svg width="45" height="45" viewBox="0 0 45 45" fill="none" xmlns="http://www.w3.org/2000/svg">
<path d="M34.637 28.7798C34.6934 28.6672 34.7497 28.5545 34.806 28.4419C34.975 28.104 35.0876 27.766 35.2566 27.4281C35.2566 27.3718 35.3129 27.3155 35.3129 27.2591C35.4818 26.8649 35.5945 26.4707 35.7071 26.0764C35.7071 26.0764 35.7071 26.0764 35.7071 26.0201C35.7635 25.8511 35.7635 25.6822 35.8198 25.5132C35.8198 25.4569 35.8761 25.4006 35.8761 25.3443C35.8761 25.2316 35.9324 25.119 35.9324 24.95C35.9324 24.8374 35.9887 24.7247 35.9887 24.6121C35.9887 24.5558 35.9887 24.4431 36.0451 24.3868C36.0451 24.2178 36.1014 24.0489 36.1014 23.8799C36.1014 23.8799 36.1014 23.8799 36.1014 23.8236C36.2703 22.0213 36.1014 20.1628 35.5382 18.4168C35.5382 18.4168 35.5382 18.4168 35.5382 18.3605C35.4818 18.1916 35.4255 17.9663 35.3692 17.7973C35.3692 17.741 35.3692 17.741 35.3129 17.6847C35.2566 17.5157 35.2002 17.3468 35.1439 17.1778C35.1439 17.1215 35.0876 17.0652 35.0876 17.0088C35.0313 16.8399 34.975 16.7272 34.8623 16.5583C34.8623 16.502 34.806 16.4456 34.806 16.3893C34.7497 16.2203 34.637 16.1077 34.5807 15.9387C34.5807 15.8824 34.5244 15.8261 34.5244 15.8261C34.4681 15.7135 34.4118 15.6571 34.4118 15.5445C34.3554 15.4882 34.2991 15.3755 34.2991 15.3192L34.2428 15.2629C33.0601 13.348 31.4831 11.8274 29.6808 10.701C29.5682 10.6446 29.5119 10.5883 29.3992 10.532C29.3429 10.4757 29.2303 10.4193 29.174 10.4193C27.3154 9.40558 25.1752 8.78606 22.9224 8.72974C22.8661 8.72974 22.8661 8.72974 22.8098 8.72974C22.7534 8.72974 22.6408 8.72974 22.5845 8.72974C22.4718 8.72974 22.4155 8.72974 22.3029 8.72974C22.2466 8.72974 22.1902 8.72974 22.1339 8.72974C21.965 8.72974 21.8523 8.72974 21.6834 8.72974C21.627 8.72974 21.5144 8.72974 21.4581 8.72974C21.3454 8.72974 21.1765 8.72974 21.0638 8.78606C20.9512 8.78606 20.8949 8.78606 20.7822 8.84238C20.6696 8.84238 20.5006 8.8987 20.388 8.8987C20.2753 8.8987 20.1627 8.95502 20.1064 8.95502C19.9937 8.95502 19.8811 9.01134 19.7685 9.01134C19.6558 9.01134 19.5432 9.06766 19.4305 9.06766C19.3179 9.06766 19.2053 9.12398 19.0926 9.12398C18.98 9.1803 18.8673 9.1803 18.7547 9.23662C18.642 9.29294 18.5294 9.29294 18.4731 9.34926C18.3604 9.40558 18.2478 9.40558 18.1352 9.4619C18.0225 9.51822 17.9662 9.51822 17.8536 9.57454C17.7409 9.63086 17.6283 9.68718 17.5156 9.7435C17.403 9.79982 17.3467 9.79982 17.234 9.85614C17.1214 9.91246 16.9524 9.96878 16.8398 10.0251C16.7835 10.0814 16.6708 10.0814 16.6145 10.1377C16.5019 10.1941 16.3329 10.2504 16.2203 10.363C16.164 10.4193 16.1076 10.4193 16.0513 10.4757C15.995 10.532 15.8823 10.5883 15.826 10.5883C15.7697 10.6446 15.6571 10.701 15.6007 10.701L15.5444 10.7573C13.6295 11.94 12.1089 13.517 10.9825 15.3192C10.9262 15.4319 10.8698 15.4882 10.8135 15.6008C10.7572 15.6571 10.7009 15.7698 10.7009 15.8261C9.68711 17.6847 9.06758 19.8249 9.01126 22.0777C9.01126 22.134 9.01126 22.134 9.01126 22.1903C9.01126 22.2466 9.01126 22.3593 9.01126 22.4156C9.01126 22.5282 9.01126 22.5846 9.01126 22.6972C9.01126 22.7535 9.01126 22.8098 9.01126 22.8662C9.01126 23.0351 9.01126 23.1478 9.01126 23.3167C9.01126 23.373 9.01126 23.4857 9.01126 23.542C9.01126 23.6546 9.01126 23.8236 9.06758 23.9362C9.06758 24.0489 9.06758 24.1052 9.1239 24.2178C9.1239 24.3305 9.18022 24.4431 9.18022 24.6121C9.18022 24.7247 9.23654 24.8374 9.23654 24.8937C9.23654 25.0063 9.29286 25.119 9.29286 25.2316C9.29286 25.3443 9.34918 25.4569 9.34918 25.5695C9.34918 25.6822 9.4055 25.7948 9.4055 25.9075C9.46182 26.0201 9.46182 26.1327 9.51814 26.2454C9.57446 26.358 9.57447 26.4143 9.63079 26.527C9.68711 26.6396 9.68711 26.7523 9.74343 26.8649C9.79975 26.9775 9.79975 27.0339 9.85607 27.1465C9.91239 27.2591 9.96871 27.3718 10.025 27.5408C10.0813 27.5971 10.0813 27.7097 10.1377 27.766C10.194 27.8787 10.2503 28.0476 10.3066 28.1603C10.363 28.2166 10.363 28.2729 10.4193 28.3856C10.4756 28.5545 10.5882 28.6672 10.6446 28.8361C10.6446 28.8924 10.7009 28.9488 10.7009 29.0051C10.7572 29.0614 10.8135 29.174 10.8135 29.2304C10.8135 29.2867 10.8698 29.2867 10.8698 29.343C11.0388 29.6246 11.2078 29.9062 11.433 30.1878C11.4894 30.3004 11.602 30.4131 11.6583 30.5257C11.8273 30.751 11.9962 30.9763 12.1652 31.2016C12.3342 31.4269 12.5594 31.5958 12.7284 31.8211C12.841 31.9337 12.8974 32.0464 13.01 32.1027C13.2353 32.328 13.5169 32.6096 13.7985 32.8349C13.8548 32.8912 13.9111 32.9475 13.9675 33.0038C14.1927 33.2291 14.4743 33.3981 14.7559 33.567C14.8686 33.6234 14.9812 33.736 15.0939 33.7923C15.2628 33.905 15.4881 34.0176 15.6571 34.1302C15.8823 34.2429 16.1076 34.4118 16.3329 34.5245C16.4456 34.5808 16.5582 34.6371 16.6708 34.6934C17.0088 34.8624 17.3467 34.975 17.6846 35.144C17.7409 35.144 17.7972 35.2003 17.8536 35.2003C18.2478 35.3693 18.642 35.4819 19.0926 35.5946C19.3742 35.6509 19.6558 35.7635 19.9374 35.8198C19.9937 35.8198 19.9937 35.8198 20.0501 35.8198C20.2753 35.8762 20.5006 35.8762 20.7259 35.9325C20.8385 35.9325 20.9512 35.9888 21.0638 35.9888C21.1765 35.9888 21.3454 36.0451 21.4581 36.0451C21.627 36.0451 21.7397 36.0451 21.9086 36.1014H21.965C22.1902 36.1014 22.4155 36.1014 22.6408 36.1014C23.0914 36.1014 23.5419 36.0451 23.9925 36.0451H24.0488C24.2741 36.0451 24.443 35.9888 24.6683 35.9888H24.7247C25.2879 35.8762 25.9074 35.7635 26.4706 35.5946C26.5832 35.5382 26.6959 35.5382 26.7522 35.4819C26.8648 35.4256 27.0338 35.3693 27.1464 35.3693C27.2591 35.313 27.428 35.2566 27.5407 35.2003C27.6533 35.144 27.766 35.144 27.8786 35.0877C28.1039 34.975 28.3292 34.9187 28.5544 34.8061C28.6671 34.7498 28.7234 34.6934 28.836 34.6371C28.9487 34.5808 29.1176 34.4682 29.2303 34.4118C29.2866 34.3555 29.3429 34.3555 29.3992 34.2992C29.4556 34.2992 29.4556 34.2429 29.5119 34.2429C29.7935 34.0739 30.0751 33.905 30.3567 33.6797C30.4693 33.6234 30.582 33.5107 30.6946 33.4544C30.9199 33.2854 31.1452 33.1165 31.3705 32.9475C31.5957 32.7785 31.7647 32.6096 31.99 32.4406C32.1026 32.328 32.2153 32.2153 32.3279 32.1027C32.5532 31.8774 32.8348 31.5958 33.0601 31.3142C33.1164 31.2579 33.1727 31.2016 33.229 31.1453C33.4543 30.92 33.6233 30.6384 33.7922 30.3568C33.8486 30.2441 33.9612 30.1315 34.0175 30.0188C34.1302 29.8499 34.2428 29.6246 34.3554 29.4556C34.4118 29.2304 34.5244 29.0051 34.637 28.7798ZM34.2428 26.8649C34.2428 26.9212 34.1865 26.9775 34.1865 27.0339C34.0738 27.3718 33.9049 27.6534 33.7922 27.935C33.7359 28.0476 33.6796 28.1603 33.6233 28.2729C33.5106 28.4982 33.398 28.6672 33.2854 28.8924C33.1727 29.0614 33.0601 29.2304 32.9474 29.3993C32.8911 29.4556 32.8348 29.5683 32.7785 29.6246C30.7509 31.7085 27.9912 32.8912 25.1189 32.8912C22.1902 32.8912 19.4869 31.7085 17.403 29.6246C14.0238 26.1327 14.0238 20.5007 17.403 17.0652C18.6984 15.7698 20.388 15.0376 22.1902 15.0376C23.9925 15.0376 25.6821 15.7698 26.9775 17.0652C29.0613 19.2053 29.0613 22.6972 26.9775 24.8374C26.189 25.6259 25.1752 26.0764 24.0488 26.0764C22.9224 26.0764 21.9086 25.6259 21.1201 24.8374C19.8811 23.542 19.8811 21.4581 21.1201 20.1628C21.5707 19.7122 22.1902 19.4306 22.8661 19.4306C23.5419 19.4306 24.1051 19.7122 24.612 20.1628C25.3442 20.8949 25.3442 22.134 24.612 22.8662C24.3867 23.0914 24.3867 23.4294 24.612 23.6546C24.8373 23.8799 25.1752 23.8799 25.4005 23.6546C26.5269 22.4719 26.5269 20.557 25.4005 19.3743C24.7247 18.6984 23.8235 18.3042 22.8661 18.3042C21.9086 18.3042 21.0075 18.6984 20.3317 19.3743C18.642 21.1202 18.642 23.8799 20.3317 25.6259C21.3454 26.6396 22.6408 27.2028 24.0488 27.2028C25.4568 27.2028 26.7522 26.6396 27.766 25.6259C30.2441 23.0351 30.2441 18.8674 27.766 16.2767C26.3016 14.756 24.2741 13.9112 22.1902 13.9112C20.1064 13.9112 18.0788 14.756 16.6145 16.2767C12.841 20.1628 12.841 26.527 16.6145 30.4131C18.8673 32.7785 21.9086 34.0176 25.1189 34.0176C26.2453 34.0176 27.3154 33.8486 28.3855 33.567C28.1602 33.6797 27.9349 33.7923 27.766 33.905C27.7096 33.9613 27.6533 33.9613 27.597 34.0176C27.3154 34.1302 26.9775 34.2992 26.6959 34.4118C26.6395 34.4682 26.5269 34.4682 26.4706 34.5245C26.189 34.6371 25.8511 34.6934 25.5695 34.8061C25.4568 34.8061 25.3442 34.8624 25.2315 34.8624C24.9499 34.9187 24.6683 34.975 24.3867 35.0314C24.2741 35.0314 24.1051 35.0877 23.9925 35.0877C23.7109 35.144 23.4293 35.144 23.1477 35.144C23.035 35.144 22.8661 35.144 22.7534 35.144C22.4718 35.144 22.1902 35.144 21.8523 35.144C21.7397 35.144 21.6834 35.144 21.5707 35.144C21.2328 35.144 20.8949 35.0877 20.5569 35.0314C20.5006 35.0314 20.5006 35.0314 20.4443 35.0314C20.0501 34.975 19.6558 34.8624 19.3179 34.8061C18.9237 34.6934 18.5294 34.5808 18.1915 34.4682C18.1352 34.4682 18.0788 34.4118 18.0788 34.4118C17.7409 34.2992 17.4593 34.1302 17.1214 34.0176C17.0088 33.9613 16.8961 33.905 16.8398 33.8486C16.6145 33.736 16.3892 33.6234 16.2203 33.5107C16.0513 33.3981 15.8823 33.2854 15.7134 33.1728C15.6007 33.1165 15.4881 33.0038 15.3755 32.9475C15.1502 32.7785 14.9249 32.6096 14.6996 32.4406C14.6433 32.3843 14.587 32.328 14.5307 32.2717C14.3054 32.0464 14.0238 31.8211 13.7985 31.5958C13.6859 31.4832 13.6295 31.4269 13.5169 31.3142C13.3479 31.1453 13.179 30.92 13.01 30.751C12.841 30.5821 12.6721 30.3568 12.5594 30.1315C12.5031 30.0188 12.3905 29.9062 12.3342 29.8499C12.1652 29.6246 11.9962 29.343 11.8273 29.0614C11.771 28.9488 11.7146 28.8361 11.6583 28.7235C11.6583 28.6672 11.602 28.6108 11.602 28.5545C11.5457 28.4419 11.4894 28.2729 11.433 28.1603C11.3767 28.104 11.3767 28.0476 11.3204 27.9913C11.2641 27.8787 11.2078 27.766 11.1514 27.6534C11.0951 27.5971 11.0951 27.4844 11.0388 27.4281C10.9825 27.3155 10.9262 27.2028 10.9262 27.0902C10.8698 26.9775 10.8698 26.9212 10.8135 26.8086C10.7572 26.6959 10.7572 26.5833 10.7009 26.4707C10.6446 26.358 10.6446 26.3017 10.6446 26.1891C10.5882 26.0764 10.5882 25.9638 10.5319 25.8511C10.5319 25.7385 10.4756 25.6259 10.4756 25.5695C10.4756 25.4569 10.4193 25.3443 10.4193 25.2879C10.4193 25.1753 10.363 25.0627 10.363 24.95C10.363 24.8374 10.3066 24.781 10.3066 24.6684C10.3066 24.5558 10.2503 24.4431 10.2503 24.3305C10.2503 24.2178 10.2503 24.1615 10.194 24.0489C10.194 23.9362 10.194 23.8236 10.1377 23.6546C10.1377 23.5983 10.1377 23.4857 10.1377 23.4294C10.1377 23.3167 10.1377 23.1478 10.1377 23.0351C10.1377 22.9788 10.1377 22.9225 10.1377 22.8662C10.1377 22.6972 10.1377 22.5282 10.1377 22.4156C10.1377 22.3593 10.1377 22.3593 10.1377 22.303C10.194 20.3317 10.7009 18.3605 11.6583 16.6146C11.7146 16.502 11.771 16.4456 11.8273 16.333C11.8836 16.2767 11.9399 16.164 11.9399 16.1077C12.9537 14.4181 14.418 12.9538 16.1076 11.94L16.164 11.8837C16.2766 11.8274 16.3892 11.771 16.5019 11.6584C16.6145 11.6021 16.7835 11.4894 16.8961 11.4331C16.9524 11.3768 17.0651 11.3205 17.1214 11.3205C17.3467 11.2078 17.572 11.0952 17.7409 11.0389C17.7972 10.9826 17.9099 10.9826 17.9662 10.9262C18.1352 10.8699 18.3041 10.8136 18.4731 10.7573C18.5294 10.7573 18.642 10.701 18.6984 10.701C18.8673 10.6446 19.0926 10.5883 19.2616 10.532C19.3179 10.532 19.3742 10.532 19.4305 10.4757C19.6558 10.4193 19.9374 10.363 20.1627 10.3067C20.219 10.3067 20.2753 10.3067 20.3317 10.3067C20.5569 10.2504 20.7259 10.2504 20.9512 10.1941C21.0075 10.1941 21.0638 10.1941 21.1201 10.1941C21.3454 10.1941 21.5144 10.1377 21.7397 10.1377C21.796 10.1377 21.796 10.1377 21.8523 10.1377C22.1339 10.1377 22.3592 10.1377 22.6408 10.1377C24.781 10.1377 26.9211 10.7009 28.7797 11.7147C28.836 11.771 28.8924 11.771 28.9487 11.8274C29.1176 11.8837 29.2303 11.9963 29.3429 12.109C29.4556 12.1653 29.5119 12.2216 29.6245 12.2779C29.6808 12.3342 29.7372 12.3906 29.8498 12.4469C30.1314 12.6158 30.3567 12.8411 30.6383 13.0664C31.2578 13.5733 31.821 14.1365 32.3279 14.756C32.4405 14.925 32.5532 15.0376 32.6658 15.2066C32.6658 15.2066 32.6658 15.2629 32.7221 15.2629C32.8911 15.4882 33.0601 15.7698 33.229 15.9951C33.2854 16.1077 33.3417 16.164 33.398 16.2767C33.4543 16.3893 33.5106 16.4456 33.567 16.5583C33.7359 16.8399 33.9049 17.1778 34.0175 17.4594C34.0738 17.5157 34.0738 17.572 34.1302 17.6847C34.2428 17.9663 34.4118 18.3042 34.4681 18.5858C34.5244 18.6984 34.5244 18.7548 34.5807 18.8674C34.6934 19.149 34.7497 19.4306 34.806 19.7685C34.806 19.8812 34.8623 19.9938 34.8623 20.1065C34.9186 20.3881 34.975 20.6697 35.0313 20.9513C35.0313 21.0639 35.0876 21.2329 35.0876 21.3455C35.1439 21.6271 35.1439 21.9087 35.1439 22.1903C35.1439 22.303 35.1439 22.4719 35.1439 22.5846C35.1439 22.8662 35.1439 23.1478 35.1439 23.4857C35.1439 23.5983 35.1439 23.6546 35.1439 23.7673C35.1439 24.1052 35.0876 24.4431 35.0313 24.781C35.0313 24.8374 35.0313 24.8374 35.0313 24.8937C34.975 25.2879 34.8623 25.6259 34.806 26.0201V26.0764C34.5244 26.1327 34.4118 26.527 34.2428 26.8649Z" fill="white"/>
<path d="M21.965 0.563204V5.46308C21.965 5.801 22.1902 6.02628 22.5282 6.02628C22.8661 6.02628 23.0914 5.801 23.0914 5.46308V0.563204C23.0914 0.225282 22.8661 0 22.5282 0C22.1902 0 21.965 0.225282 21.965 0.563204Z" fill="white"/>
<path d="M11.2641 3.04148C10.9825 3.21044 10.9262 3.54836 11.0388 3.82997L13.4606 8.054C13.5732 8.22296 13.7422 8.3356 13.9675 8.3356C14.0801 8.3356 14.1364 8.3356 14.2491 8.27928C14.5307 8.11032 14.587 7.77239 14.4743 7.49079L12.0526 3.26676C11.8836 2.92884 11.5457 2.87252 11.2641 3.04148Z" fill="white"/>
<path d="M7.9975 13.4606L3.77347 11.0389C3.49186 10.8699 3.15394 10.9825 2.98498 11.2641C2.81602 11.5457 2.92866 11.8837 3.21026 12.0526L7.43429 14.4744C7.54693 14.5307 7.60325 14.5307 7.71589 14.5307C7.88485 14.5307 8.11014 14.4181 8.22278 14.2491C8.39174 13.9675 8.2791 13.6296 7.9975 13.4606Z" fill="white"/>
<path d="M0.563204 23.0913H5.46308C5.801 23.0913 6.02628 22.866 6.02628 22.528C6.02628 22.1901 5.801 21.9648 5.46308 21.9648H0.563204C0.225282 21.9648 0 22.1901 0 22.528C0 22.866 0.225282 23.0913 0.563204 23.0913Z" fill="white"/>
<path d="M7.43429 30.5256L3.21026 32.9474C2.92866 33.1163 2.87234 33.4542 2.98498 33.7358C3.09762 33.9048 3.26658 34.0174 3.49186 34.0174C3.6045 34.0174 3.66082 34.0174 3.77346 33.9611L7.99749 31.5393C8.2791 31.3704 8.33542 31.0325 8.22278 30.7509C8.05381 30.4693 7.71589 30.4129 7.43429 30.5256Z" fill="white"/>
<path d="M13.4606 37.0027L11.0388 41.2267C10.8698 41.5083 10.9825 41.8462 11.2641 42.0152C11.3767 42.0715 11.433 42.0715 11.5457 42.0715C11.7146 42.0715 11.9399 41.9589 12.0526 41.7899L14.4743 37.5659C14.6433 37.2843 14.5307 36.9463 14.2491 36.7774C13.9675 36.6084 13.6295 36.7211 13.4606 37.0027Z" fill="white"/>
<path d="M21.965 39.5368V44.4367C21.965 44.7746 22.1902 44.9999 22.5282 44.9999C22.8661 44.9999 23.0914 44.7746 23.0914 44.4367V39.5368C23.0914 39.1989 22.8661 38.9736 22.5282 38.9736C22.1902 38.9736 21.965 39.2552 21.965 39.5368Z" fill="white"/>
<path d="M30.7509 36.7774C30.4693 36.9463 30.413 37.2843 30.5257 37.5659L32.9474 41.7899C33.0601 41.9589 33.229 42.0715 33.4543 42.0715C33.567 42.0715 33.6233 42.0715 33.7359 42.0152C34.0175 41.8462 34.0738 41.5083 33.9612 41.2267L31.5394 37.0027C31.3705 36.7211 31.0325 36.6084 30.7509 36.7774Z" fill="white"/>
<path d="M37.0025 31.5394L41.2265 33.9612C41.3392 34.0175 41.3955 34.0175 41.5081 34.0175C41.6771 34.0175 41.9024 33.9049 42.015 33.7359C42.184 33.4543 42.0713 33.1164 41.7897 32.9475L37.5657 30.5257C37.2841 30.3567 36.9462 30.4694 36.7772 30.751C36.6083 31.0326 36.7209 31.3705 37.0025 31.5394Z" fill="white"/>
<path d="M45 22.528C45 22.1901 44.7747 21.9648 44.4368 21.9648H39.5369C39.199 21.9648 38.9737 22.1901 38.9737 22.528C38.9737 22.866 39.199 23.0913 39.5369 23.0913H44.4368C44.7747 23.0913 45 22.8096 45 22.528Z" fill="white"/>
<path d="M36.7772 14.249C36.8899 14.418 37.0588 14.5306 37.2841 14.5306C37.3967 14.5306 37.4531 14.5306 37.5657 14.4743L41.7897 12.0525C42.0713 11.8836 42.1277 11.5456 42.015 11.264C41.8461 10.9824 41.5081 10.9261 41.2265 11.0388L37.0025 13.4605C36.7209 13.6295 36.6083 13.9674 36.7772 14.249Z" fill="white"/>
<path d="M31.0325 8.27902C31.2015 8.27902 31.4268 8.16638 31.5394 7.99742L33.9612 3.77339C34.1302 3.49179 34.0175 3.15386 33.7359 2.9849C33.4543 2.81594 33.1164 2.92858 32.9474 3.21018L30.5257 7.43421C30.3567 7.71582 30.4693 8.05374 30.7509 8.2227C30.8636 8.27902 30.9199 8.27902 31.0325 8.27902Z" fill="white"/>
</svg>
